<svg xmlns="http://www.w3.org/2000/svg" viewBox="0 0 24 24" fill="#fbf0df">
  <path d="M12 2C6.48 2 2 6.48 2 12s4.48 10 10 10 10-4.48 10-10S17.52 2 12 2z" fill="#fbf0df"/>
  <path d="M15.34 11c-.14-.42-.35-.81-.61-1.17-.26-.37-.58-.69-.92-.97-.34-.27-.71-.5-1.09-.68-.38-.18-.77-.32-1.16-.41-.39-.09-.78-.14-1.16-.14s-.76.05-1.11.14c-.35.09-.67.21-.96.35-.29.14-.55.31-.75.5-.2.19-.36.38-.46.57-.1.19-.15.37-.15.53 0 .16.05.33.15.53.1.19.25.39.46.58.2.19.46.36.75.51.29.15.61.26.96.35.35.09.73.14 1.11.14s.77-.05 1.16-.14c.39-.09.78-.23 1.16-.41.38-.18.75-.41 1.09-.68.34-.27.66-.6.92-.97.26-.37.47-.76.61-1.17.14-.42.22-.84.22-1.28 0-.44-.07-.86-.22-1.28z" fill="#fbf0df"/>
  <circle cx="12" cy="12" r="8" stroke="#fb8332" stroke-width="1" fill="none"/>
  <path d="M8 12 h8 M12 8 v8" stroke="#fb8332" stroke-width="1"/>
  <circle cx="12" cy="12" r="3" fill="#fb8332"/>
</svg>
