<svg xmlns="http://www.w3.org/2000/svg" viewBox="0 0 24 24">
  <path fill="#3178C6" d="M0 12v12h24V0H0v12zm19.34-6.55c.95.44 1.7 1.14 2.2 2.1.27.47.44 1.06.52 1.05.4-.04 2.57-1.16 2.58-1.23.04-.21-1.35-2.38-2.02-3.15C21.4 2.95 19.8 2 16.75 2c-3.14.02-5.56 1.43-6.7 3.88-.34.74-.47 1.13-.62 1.97-.2 1.07-.08 3 .25 3.95 1.07 3.08 4.62 4.92 8.22 4.25 1.1-.2 2.85-.9 3.32-1.33.16-.13.16-.15-.08-.42-.13-.14-.38-.33-.57-.42-.3-.16-.32-.16-.7.04-.9.46-1.8.75-2.86.91-3.26.5-6.1-1.04-7.03-3.76-.36-1.06-.37-3.11-.03-4.17.91-2.77 3.66-4.2 6.7-3.45z"/>
  <path fill="#3178C6" d="M14.21 10.18c0 .29 0 .3-.43.3h-3.55v5.28H8.45V6.14h9.05v4.03c0 .28 0 .3-.44.3 0 0-2.85 0-2.85-.29z"/>
</svg>
