<svg xmlns="http://www.w3.org/2000/svg" viewBox="0 0 24 24" fill="none">
  <circle cx="12" cy="12" r="10" stroke="#059669" stroke-width="2" fill-opacity="0.1" fill="#059669"/>
  <path fill-rule="evenodd" clip-rule="evenodd" d="M8.293 7.293a1 1 0 011.414 0L12 9.586l2.293-2.293a1 1 0 111.414 1.414L13.414 11l2.293 2.293a1 1 0 01-1.414 1.414L12 12.414l-2.293 2.293a1 1 0 01-1.414-1.414L10.586 11 8.293 8.707a1 1 0 010-1.414z" fill="#059669"/>
  <path d="M5.5 12h13" stroke="#059669" stroke-width="2" stroke-linecap="round" stroke-dasharray="1 2"/>
  <path d="M12 4.5v15" stroke="#059669" stroke-width="2" stroke-linecap="round" stroke-dasharray="1 2"/>
  <path d="M6 6l12 12M18 6L6 18" stroke="#059669" stroke-width="2" stroke-linecap="round" stroke-dasharray="1 2" opacity="0.5"/>
</svg>
