<?xml version="1.0" encoding="UTF-8" standalone="no"?>
<svg width="800" height="220" viewBox="0 0 800 220" xmlns="http://www.w3.org/2000/svg">
  <!-- Background -->  
  <rect width="800" height="220" rx="8" fill="#1e293b" />
  
  <!-- Browser Frame -->  
  <rect x="400" y="30" width="350" height="160" rx="6" fill="#0f172a" stroke="#64748b" stroke-width="2" />
  
  <!-- Browser Header -->  
  <rect x="400" y="30" width="350" height="25" rx="6" fill="#334155" />
  
  <!-- Browser Controls -->  
  <circle cx="415" cy="42" r="4" fill="#ef4444" />
  <circle cx="430" cy="42" r="4" fill="#fbbf24" />
  <circle cx="445" cy="42" r="4" fill="#22c55e" />
  
  <!-- URL Bar -->  
  <rect x="470" y="37" width="260" height="10" rx="2" fill="#475569" />
  
  <!-- Website Content -->  
  <!-- Header -->  
  <rect x="420" y="70" width="310" height="15" rx="2" fill="#334155" />
  
  <!-- Navigation -->  
  <rect x="420" y="95" width="310" height="10" rx="2" fill="#475569" />
  
  <!-- Content -->  
  <rect x="420" y="115" width="200" height="10" rx="2" fill="#475569" />
  <rect x="420" y="130" width="180" height="10" rx="2" fill="#475569" />
  <rect x="420" y="145" width="160" height="10" rx="2" fill="#475569" />
  
  <!-- Sidebar -->  
  <rect x="640" y="115" width="90" height="60" rx="2" fill="#334155" />
  
  <!-- Button -->  
  <rect x="420" y="170" width="70" height="15" rx="3" fill="#3b82f6" />
  
  <!-- Framework Logo -->  
  <text x="100" y="110" font-family="Arial, sans-serif" font-size="60" font-weight="bold" fill="#ffffff">0x1</text>
  
  <!-- Lightning Bolt - Simple Unicode Symbol -->
  <text x="220" y="110" font-family="Arial, sans-serif" font-size="50" fill="#fbbf24">⚡</text>
  
  <!-- Tagline -->  
  <text x="100" y="145" font-family="Arial, sans-serif" font-size="16" fill="#94a3b8">Ultra-Minimal Web Framework</text>
  
  <!-- Features -->
  <text x="60" y="175" font-family="Arial, sans-serif" font-size="14" fill="#e2e8f0">• TypeScript &amp; JavaScript</text>
  <text x="250" y="175" font-family="Arial, sans-serif" font-size="14" fill="#e2e8f0">• Zero Dependencies</text>
</svg>
