<svg xmlns="http://www.w3.org/2000/svg" viewBox="0 0 24 24" fill="none">
  <path fill-rule="evenodd" clip-rule="evenodd" d="M12 2a1 1 0 011 1v1a1 1 0 11-2 0V3a1 1 0 011-1zM4.929 4.929a1 1 0 011.414 0l.707.707A1 1 0 115.636 7.05l-.707-.707a1 1 0 010-1.414zm14.142 0a1 1 0 010 1.414l-.707.707a1 1 0 11-1.414-1.414l.707-.707a1 1 0 011.414 0zM12 8a4 4 0 100 8 4 4 0 000-8zm-6 4a6 6 0 1112 0 6 6 0 01-12 0zm-4 0a1 1 0 011-1h1a1 1 0 110 2H3a1 1 0 01-1-1zm17 0a1 1 0 011-1h1a1 1 0 110 2h-1a1 1 0 01-1-1zm-2.05 4.95a1 1 0 011.414 0l.707.707a1 1 0 01-1.414 1.414l-.707-.707a1 1 0 010-1.414zm-9.9 0a1 1 0 010 1.414l-.707.707A1 1 0 014.93 19.66l.707-.707a1 1 0 011.414 0zM12 20a1 1 0 011 1v1a1 1 0 11-2 0v-1a1 1 0 011-1z" fill="#4b5563"/>
  <circle cx="12" cy="12" r="6" stroke="#374151" stroke-width="2" fill-opacity="0.5" fill="url(#gradient)">
    <animate attributeName="fill-opacity" values="0.5;0.8;0.5" dur="3s" repeatCount="indefinite"/>
  </circle>
  <defs>
    <radialGradient id="gradient" cx="0.5" cy="0.5" r="0.5" fx="0.5" fy="0.5">
      <stop offset="0%" stop-color="#9ca3af"/>
      <stop offset="100%" stop-color="#4b5563"/>
    </radialGradient>
  </defs>
</svg>
